<?xml version="1.0" encoding="utf-8"?>
<!-- Generator: Adobe Illustrator 16.0.1, SVG Export Plug-In . SVG Version: 6.00 Build 0)  -->
<svg version="1.2" baseProfile="tiny" id="Layer_1" xmlns="http://www.w3.org/2000/svg" xmlns:xlink="http://www.w3.org/1999/xlink"
	 x="0px" y="0px" width="283.46px" height="283.46px" viewBox="0 0 283.46 283.46" xml:space="preserve">
<path fill="#FFFFFF" d="M178.334,142.667c-0.95,0-1.868,0.13-2.75,0.351c-0.844-10.64-9.727-19.017-20.584-19.017
	c-4.238,0-8.176,1.28-11.455,3.469c-4.219-4.975-10.511-8.136-17.545-8.136c-12.702,0-23,10.297-23,23
	c0,1.489,0.146,2.943,0.417,4.354c-0.14-0.006-0.276-0.021-0.417-0.021c-5.154,0-9.333,4.179-9.333,9.333
	c0,5.155,4.179,9.334,9.333,9.334c0.994,0,1.951-0.158,2.85-0.447v0.447h72.484c6.259,0,11.333-5.074,11.333-11.334
	C189.667,147.741,184.593,142.667,178.334,142.667z"/>
</svg>
