<?xml version="1.0" encoding="utf-8"?>
<!-- Generator: Adobe Illustrator 16.0.2, SVG Export Plug-In . SVG Version: 6.00 Build 0)  -->
<!DOCTYPE svg PUBLIC "-//W3C//DTD SVG 1.1//EN" "http://www.w3.org/Graphics/SVG/1.1/DTD/svg11.dtd">
<svg version="1.1" id="Layer_1" xmlns="http://www.w3.org/2000/svg" xmlns:xlink="http://www.w3.org/1999/xlink" x="0px" y="0px"
	 width="100px" height="100px" viewBox="0 0 100 100" enable-background="new 0 0 100 100" xml:space="preserve">
<path fill="#FFFFFF" d="M28.738,16.345L71.505,91.46c1.204,2.106,3.896,2.842,6.017,1.64c2.108-1.205,2.849-3.896,1.649-6.006
	L36.401,11.99c-1.209-2.121-3.896-2.859-6.014-1.656C28.274,11.542,27.534,14.23,28.738,16.345"/>
<path fill="#FFFFFF" d="M93.725,45.624L7.288,45.498c-2.435,0-4.412,1.971-4.42,4.406c0,2.432,1.968,4.415,4.4,4.415l86.445,0.127
	c2.438,0,4.413-1.973,4.413-4.41C98.131,47.601,96.161,45.629,93.725,45.624"/>
<path fill="#FFFFFF" d="M69.506,12.196L26.609,87.242c-1.203,2.119-0.47,4.813,1.642,6.017c2.111,1.216,4.804,0.48,6.013-1.64
	L77.16,16.574c1.209-2.115,0.471-4.808-1.645-6.011C73.407,9.354,70.715,10.087,69.506,12.196"/>
<path fill="#FFFFFF" d="M15.531,42.283l4.729,7.46l-6.056,9.731c-1.283,2.063-0.65,4.778,1.415,6.074
	c2.066,1.283,4.788,0.652,6.071-1.422l8.979-14.424l-7.692-12.142c-1.303-2.051-4.025-2.665-6.085-1.358
	C14.837,37.505,14.227,40.226,15.531,42.283"/>
<path fill="#FFFFFF" d="M40.914,13.771l-4.26,7.724l-11.442-0.613c-2.436-0.137-4.512,1.73-4.642,4.16
	c-0.134,2.436,1.73,4.51,4.166,4.641l16.975,0.923l6.924-12.583c1.172-2.131,0.398-4.813-1.73-5.987
	C44.767,10.861,42.085,11.634,40.914,13.771"/>
<path fill="#FFFFFF" d="M65.214,86.006l4.063-7.852l11.453,0.311c2.43,0.08,4.459-1.846,4.526-4.275
	c0.068-2.439-1.856-4.457-4.286-4.537l-16.988-0.459L57.381,81.96c-1.113,2.153-0.27,4.813,1.893,5.937
	C61.438,89.018,64.091,88.171,65.214,86.006"/>
<path fill="#FFFFFF" d="M28.38,78.43l8.813-0.504l5.58,10.016c1.187,2.133,3.868,2.899,5.997,1.707
	c2.123-1.18,2.894-3.861,1.708-5.992l-8.269-14.852l-14.333,0.824c-2.43,0.148-4.289,2.223-4.148,4.652
	C23.869,76.71,25.95,78.579,28.38,78.43"/>
<path fill="#FFFFFF" d="M89.43,57.665l-4.552-7.572l6.271-9.597c1.328-2.04,0.756-4.768-1.285-6.102
	c-2.038-1.33-4.766-0.757-6.102,1.277L74.468,49.91l7.409,12.305c1.26,2.086,3.964,2.751,6.05,1.502
	C90.014,62.455,90.688,59.751,89.43,57.665"/>
<path fill="#FFFFFF" d="M77.945,21.719l-8.83,0.178l-5.174-10.228c-1.101-2.172-3.76-3.043-5.926-1.943
	c-2.172,1.1-3.039,3.753-1.94,5.925l7.684,15.172l14.364-0.292c2.436-0.046,4.365-2.058,4.314-4.493
	C82.393,23.604,80.387,21.673,77.945,21.719"/>
</svg>
