<?xml version="1.0" encoding="utf-8"?>
<!-- Generator: Adobe Illustrator 16.0.1, SVG Export Plug-In . SVG Version: 6.00 Build 0)  -->
<svg version="1.2" baseProfile="tiny" id="Layer_1" xmlns="http://www.w3.org/2000/svg" xmlns:xlink="http://www.w3.org/1999/xlink"
	 x="0px" y="0px" width="2834.65px" height="283.46px" viewBox="0 0 2834.65 283.46" xml:space="preserve">
<path fill="#494539" d="M1950.5,228.563h-150.65h-25h-178.032h-50v42.897h50v-19.793c0,0,16.033-3.836,29.35-6.333
	c9.97-1.869,34.84-5.394,59.667-5.219c22.688,0.159,45.07,3.316,53.666,4.719c14.981,2.444,35.35,6.833,35.35,6.833v19.793h25
	v-19.793c0,0,13.567-3.836,24.836-6.333c8.436-1.869,29.481-5.394,50.49-5.219c19.198,0.159,38.138,3.316,45.411,4.719
	c12.678,2.444,29.913,6.833,29.913,6.833v19.793h20v-42.897H1950.5z"/>
<rect x="1970.5" y="228.563" fill="#515251" width="864.15" height="54.897"/>
<path fill="#494539" d="M1294.241,228.563h-178.032h-25h-150.65h-20v42.897h20v-19.793c0,0,17.235-4.389,29.913-6.833
	c7.273-1.402,26.213-4.56,45.411-4.719c21.009-0.175,42.055,3.35,50.49,5.219c11.269,2.497,24.836,6.333,24.836,6.333v19.793h25
	v-19.793c0,0,20.368-4.389,35.35-6.833c8.596-1.402,30.978-4.56,53.666-4.719c24.827-0.175,49.697,3.35,59.667,5.219
	c13.316,2.497,29.35,6.333,29.35,6.333v19.793h50v-42.897H1294.241z"/>
<rect y="228.563" fill="#515251" width="920.559" height="54.897"/>
<rect x="920.559" y="271.46" fill="#189CD3" width="1049.941" height="12"/>
<g>
	<rect x="2091" y="135.5" fill="#93CE94" width="233.75" height="93.063"/>
	<polygon fill="#8BA590" points="2331.5,144.719 2084.75,144.719 2094.249,130 2322,130 	"/>
	<rect x="2103.001" y="159.998" fill="#418A4E" width="16.944" height="19.336"/>
	<rect x="2105.568" y="162.146" fill="#FDFDFE" width="14.377" height="17.188"/>
	<rect x="2140.313" y="159.998" fill="#418A4E" width="16.945" height="19.336"/>
	<rect x="2142.881" y="162.146" fill="#FDFDFE" width="14.377" height="17.188"/>
	<rect x="2177.401" y="159.998" fill="#418A4E" width="16.943" height="19.336"/>
	<rect x="2179.967" y="162.146" fill="#FDFDFE" width="14.378" height="17.188"/>
	<rect x="2213.574" y="159.998" fill="#418A4E" width="16.944" height="19.336"/>
	<rect x="2216.141" y="162.146" fill="#FDFDFE" width="14.378" height="17.188"/>
	<rect x="2250.285" y="159.998" fill="#418A4E" width="16.943" height="19.336"/>
	<rect x="2252.851" y="162.146" fill="#FDFDFE" width="14.378" height="17.188"/>
	<rect x="2292.391" y="159.998" fill="#418A4E" width="16.943" height="19.336"/>
	<rect x="2294.957" y="162.146" fill="#FDFDFE" width="14.377" height="17.188"/>
	<rect x="2103.001" y="193.998" fill="#418A4E" width="16.944" height="19.336"/>
	<rect x="2105.568" y="196.146" fill="#FDFDFE" width="14.377" height="17.188"/>
	<rect x="2140.313" y="193.998" fill="#418A4E" width="16.945" height="19.336"/>
	<rect x="2142.881" y="196.146" fill="#FDFDFE" width="14.377" height="17.188"/>
	<rect x="2177.401" y="193.998" fill="#418A4E" width="16.943" height="19.336"/>
	<rect x="2179.967" y="196.146" fill="#FDFDFE" width="14.378" height="17.188"/>
	<rect x="2213.574" y="193.998" fill="#418A4E" width="16.944" height="19.336"/>
	<rect x="2216.141" y="196.146" fill="#FDFDFE" width="14.378" height="17.188"/>
	<rect x="2250.285" y="193.998" fill="#418A4E" width="16.943" height="19.336"/>
	<rect x="2252.851" y="196.146" fill="#FDFDFE" width="14.378" height="17.188"/>
	<rect x="2292.391" y="193.998" fill="#418A4E" width="16.943" height="19.336"/>
	<rect x="2294.957" y="196.146" fill="#FDFDFE" width="14.377" height="17.188"/>
</g>
<g>
	<rect x="2572" y="135.553" fill="#B5BC84" width="233.75" height="93.063"/>
	<polygon fill="#8BA590" points="2812.391,144.771 2565.641,144.771 2575.14,130.053 2802.891,130.053 	"/>
	<rect x="2583.892" y="160.051" fill="#878341" width="16.944" height="19.336"/>
	<rect x="2586.459" y="162.198" fill="#FDFDFE" width="14.377" height="17.188"/>
	<rect x="2621.203" y="160.051" fill="#878341" width="16.945" height="19.336"/>
	<rect x="2623.771" y="162.198" fill="#FDFDFE" width="14.377" height="17.188"/>
	<rect x="2658.292" y="160.051" fill="#878341" width="16.943" height="19.336"/>
	<rect x="2660.857" y="162.198" fill="#FDFDFE" width="14.378" height="17.188"/>
	<rect x="2694.465" y="160.051" fill="#878341" width="16.944" height="19.336"/>
	<rect x="2697.031" y="162.198" fill="#FDFDFE" width="14.378" height="17.188"/>
	<rect x="2731.176" y="160.051" fill="#878341" width="16.943" height="19.336"/>
	<rect x="2733.741" y="162.198" fill="#FDFDFE" width="14.378" height="17.188"/>
	<rect x="2773.281" y="160.051" fill="#878341" width="16.943" height="19.336"/>
	<rect x="2775.848" y="162.198" fill="#FDFDFE" width="14.377" height="17.188"/>
	<rect x="2583.892" y="194.051" fill="#878341" width="16.944" height="19.336"/>
	<rect x="2586.459" y="196.198" fill="#FDFDFE" width="14.377" height="17.188"/>
	<rect x="2621.203" y="194.051" fill="#878341" width="16.945" height="19.336"/>
	<rect x="2623.771" y="196.198" fill="#FDFDFE" width="14.377" height="17.188"/>
	<rect x="2658.292" y="194.051" fill="#878341" width="16.943" height="19.336"/>
	<rect x="2660.857" y="196.198" fill="#FDFDFE" width="14.378" height="17.188"/>
	<rect x="2694.465" y="194.051" fill="#878341" width="16.944" height="19.336"/>
	<rect x="2697.031" y="196.198" fill="#FDFDFE" width="14.378" height="17.188"/>
	<rect x="2731.176" y="194.051" fill="#878341" width="16.943" height="19.336"/>
	<rect x="2733.741" y="196.198" fill="#FDFDFE" width="14.378" height="17.188"/>
	<rect x="2773.281" y="194.051" fill="#878341" width="16.943" height="19.336"/>
	<rect x="2775.848" y="196.198" fill="#FDFDFE" width="14.377" height="17.188"/>
</g>
<g>
	<rect x="2432" y="95" fill="#99634B" width="14.5" height="114.5"/>
	<rect x="2429.5" y="209.5" fill="#7A655A" width="19" height="19.063"/>
	<rect x="2432" y="95.5" fill="#49604C" width="14.5" height="15.126"/>
	<rect x="2428.667" y="109.167" fill="#2B3F2D" width="20.666" height="1.459"/>
	<circle fill="#49604C" cx="2439.25" cy="96.083" r="7.25"/>
</g>
</svg>
